PERFORMER "Baltazar Ortiz"
FILE "/home/baltazar/Music/Mixxx/Recordings/2016-05-12_18h19m31s.mp3" MP3 
  TRACK 01 AUDIO
    TITLE "Outside (feat. Ellie Goulding)"
    PERFORMER "Calvin Harris"
    INDEX 01 00:04:08
  TRACK 02 AUDIO
    TITLE "Back In Time"
    PERFORMER "Pitbull"
    INDEX 01 02:43:36
  TRACK 03 AUDIO
    TITLE "We No Speak Americano"
    PERFORMER "Yolanda Be Cool & DCUP"
    INDEX 01 05:40:72
  TRACK 04 AUDIO
    TITLE "Lone Digger"
    PERFORMER "Caravan Palace"
    INDEX 01 07:20:74
  TRACK 05 AUDIO
    TITLE "Mr. Saxobeat"
    PERFORMER "Mr. Saxobeat"
    INDEX 01 10:46:55
  TRACK 06 AUDIO
    TITLE "Moves Like Jagger"
    PERFORMER "Maroon 5 f. Christina Aguilera"
    INDEX 01 13:40:68
  TRACK 07 AUDIO
    TITLE "Beautiful People (Radio Edit)"
    PERFORMER "Chris Brown f. Benny Benassi"
    INDEX 01 16:45:18
  TRACK 08 AUDIO
    TITLE "Wait (Kiely Rich Remix)"
    PERFORMER "Adventure Club"
    INDEX 01 19:25:20
  TRACK 09 AUDIO
    TITLE "Titanium feat. Sia (MEMO Bootleg)"
    PERFORMER "David Guetta"
    INDEX 01 24:23:17
